<?xml version="1.0" encoding="UTF-8"?>
<svg version="1.1" xmlns="http://www.w3.org/2000/svg" width="1024" height="1024">
<path d="M0 0 C1.15495715 -0.00763173 1.15495715 -0.00763173 2.33324677 -0.01541764 C4.92163069 -0.03115363 7.50998666 -0.03967036 10.09840393 -0.04811096 C11.95127541 -0.05764882 13.80414509 -0.06753995 15.65701294 -0.07775879 C21.75146873 -0.10916273 27.84593823 -0.12941807 33.94044495 -0.14796448 C35.49662407 -0.15291046 35.49662407 -0.15291046 37.08424115 -0.15795636 C46.87290514 -0.18874683 56.66157221 -0.21544979 66.45027065 -0.23237514 C78.96053634 -0.25426076 91.47037168 -0.29618095 103.98046535 -0.36581272 C112.78148736 -0.41313012 121.5823936 -0.43731935 130.38353878 -0.44457203 C135.63675407 -0.44951809 140.8894845 -0.46449882 146.14256096 -0.50431633 C151.09131096 -0.54133094 156.0393022 -0.54954386 160.9881649 -0.5363102 C162.79728489 -0.53636391 164.60643975 -0.54656206 166.41543198 -0.56806183 C179.3303313 -0.71325499 188.79110488 0.94296079 198.8818512 9.78562927 C207.11619319 18.6904083 209.99612091 28.85170419 209.79200745 40.64891052 C209.45125074 48.36987525 207.65359963 55.91099001 206.06690979 63.45213318 C205.34855084 66.92618468 204.69674031 70.41081031 204.04933167 73.89866638 C203.39893035 77.38721258 202.72193784 80.87042606 202.04542542 84.35398865 C201.67014463 86.30966767 201.30256645 88.26683382 200.94093323 90.2250824 C197.76091417 107.41466085 194.70540016 123.14354625 179.7959137 134.16453552 C170.32002127 140.38227863 162.36225761 143.31553387 150.9364624 143.30107117 C149.82348792 143.30552785 149.82348792 143.30552785 148.68802911 143.31007457 C146.21250444 143.31871619 143.7370284 143.32026594 141.26148987 143.32176208 C139.48212583 143.32639341 137.70276278 143.3314185 135.92340088 143.33680725 C131.0968599 143.34990149 126.27033281 143.3563702 121.44377685 143.36081791 C118.42615241 143.36375298 115.40853173 143.36785857 112.39090919 143.37232208 C102.94291425 143.38598814 93.49492795 143.3956596 84.04692382 143.39952397 C73.15235171 143.40400499 62.25790504 143.42155868 51.36337107 143.45052457 C42.93345261 143.47215745 34.5035694 143.48222909 26.07362348 143.48356509 C21.0425959 143.48461181 16.01168638 143.49049155 10.9806881 143.5083847 C6.24710368 143.52489352 1.51372575 143.52700725 -3.21987724 143.5182457 C-4.95283182 143.51747687 -6.68579763 143.52179757 -8.41872406 143.53170395 C-22.06791103 143.60512791 -33.32203268 142.17677842 -43.6806488 132.41062927 C-47.28020326 128.65790228 -49.61595685 124.99192857 -51.4931488 120.16062927 C-51.9056488 119.12937927 -52.3181488 118.09812927 -52.7431488 117.03562927 C-55.09905902 104.86342648 -52.63694799 93.89461782 -49.98924255 82.00828552 C-48.45095607 75.0956551 -47.12712492 68.14791413 -45.81495667 61.18998718 C-39.65613799 28.66802067 -39.65613799 28.66802067 -33.4931488 18.16062927 C-32.8331488 18.16062927 -32.1731488 18.16062927 -31.4931488 18.16062927 C-31.08709412 17.27504333 -31.08709412 17.27504333 -30.6728363 16.37156677 C-24.88350941 5.52137134 -11.72846509 0.01915695 0 0 Z " fill="#3F72B3" transform="translate(316.49314880371094,238.83937072753906)"/>
<path d="M0 0 C1.5909981 -0.00571047 3.18199211 -0.01267734 4.77297974 -0.02079773 C9.07262747 -0.03866919 13.37207045 -0.03757218 17.67174411 -0.03185534 C21.27002322 -0.02875488 24.86826349 -0.03486543 28.46653706 -0.04089409 C36.95933262 -0.05491785 45.45202753 -0.05339585 53.94482422 -0.04199219 C62.68758981 -0.03051184 71.4300486 -0.0445901 80.17277378 -0.07138866 C87.69748728 -0.09358464 95.22210475 -0.10017431 102.74684864 -0.09431225 C107.23294843 -0.09095093 111.71885158 -0.09330269 116.20492363 -0.11056328 C120.42483933 -0.12609277 124.64430238 -0.12201083 128.86420059 -0.10325813 C130.40644943 -0.09958885 131.94873226 -0.10263192 133.49094963 -0.11314392 C146.45622298 -0.19472217 155.34090798 1.80283531 164.90454102 10.88452148 C175.69931432 22.86839202 174.95157208 35.19160788 174.41381836 50.53686523 C173.88148447 59.12359514 171.81390763 67.3529288 169.78930664 75.6862793 C168.8368375 79.89377391 168.22168838 84.13585474 167.61157227 88.40405273 C164.5533354 108.7396194 159.39771059 124.51020374 142.63891602 137.50952148 C132.35209874 143.13421864 121.87875764 143.99069147 110.40063477 143.92163086 C108.86317283 143.92706554 107.32571611 143.93419568 105.78826904 143.94287109 C101.65180181 143.96094775 97.5157382 143.95410252 93.37926483 143.94135475 C89.02651474 143.93114508 84.67379654 143.94064234 80.32104492 143.94689941 C73.01483022 143.95415283 65.70877787 143.944649 58.40258789 143.92553711 C49.98583526 143.90377278 41.56947037 143.9108258 33.15272713 143.93284273 C25.89368969 143.95106281 18.63476819 143.95352293 11.37571526 143.94308805 C7.05446911 143.93688926 2.7334045 143.93591685 -1.58782959 143.94923401 C-5.65270663 143.96088875 -9.71708945 143.95259374 -13.78191376 143.92965698 C-15.26323379 143.92442075 -16.74459627 143.92579506 -18.22589874 143.93470764 C-31.27157131 144.00589265 -43.01817268 142.55490707 -52.66186523 133.03686523 C-57.76850492 126.82409421 -61.51900924 119.53739295 -61.82592773 111.40405273 C-61.90842773 110.12530273 -61.99092773 108.84655273 -62.07592773 107.52905273 C-61.96898082 101.04806968 -60.58624622 94.73628735 -59.38256836 88.3894043 C-58.72329563 84.85362058 -58.09400138 81.31277137 -57.46655273 77.77124023 C-55.19494501 64.9801081 -52.89404203 52.1893537 -50.26342773 39.46655273 C-50.09020996 38.5814502 -49.91699219 37.69634766 -49.73852539 36.78442383 C-46.79385817 23.01166558 -39.05777077 12.43513888 -27.35717773 4.65795898 C-18.29028746 0.16649019 -9.90060144 -0.03218315 0 0 Z " fill="#68ABE1" transform="translate(606.825927734375,238.595947265625)"/>
<path d="M0 0 C1.95135864 -0.00143509 1.95135864 -0.00143509 3.94213867 -0.00289917 C6.68881426 -0.00436611 9.43545715 -0.00225685 12.18212891 0.00244141 C15.65028797 0.00809365 19.11836961 0.00478371 22.58652592 -0.00099182 C71.67893468 -0.07077859 71.67893468 -0.07077859 85.0625 11.4453125 C93.76689273 21.56122838 95.07257606 31.03233412 94.375 44.1328125 C93.7607492 49.76762337 92.85782837 55.25039303 91.44921875 60.7421875 C90.0379984 66.27558775 89.07754372 71.89091388 88.0625 77.5078125 C87.62044925 79.92069348 87.17772323 82.33345083 86.734375 84.74609375 C86.50943359 85.97150879 86.28449219 87.19692383 86.05273438 88.45947266 C84.22546578 98.36332112 82.33459129 108.25430239 80.375 118.1328125 C80.19582031 119.04047363 80.01664063 119.94813477 79.83203125 120.88330078 C79.33966663 123.34466113 78.83011901 125.80165444 78.3125 128.2578125 C78.17448975 128.9494751 78.03647949 129.6411377 77.89428711 130.35375977 C74.97086906 143.7941701 66.06590889 154.10021307 54.94921875 161.703125 C48.11590885 165.49825614 42.41388493 166.57887113 34.72119141 166.55273438 C33.78998978 166.56120392 32.85878815 166.56967346 31.89936829 166.57839966 C28.84162484 166.60166994 25.78438755 166.60279417 22.7265625 166.6015625 C20.58718671 166.60867012 18.4478128 166.61637 16.30844116 166.62463379 C11.83155006 166.63805577 7.35483524 166.63965761 2.87792969 166.63378906 C-2.84054985 166.6278955 -8.55817967 166.65848173 -14.27649498 166.69890594 C-18.69306951 166.72483763 -23.10944092 166.72765537 -27.52608109 166.72401428 C-29.63348144 166.72570042 -31.7408917 166.73529387 -33.84821701 166.75315857 C-46.23314257 166.84660325 -55.32261688 166.79775317 -65.4296875 158.95703125 C-75.25472478 148.81685127 -77.01789313 140.08013426 -76.83984375 126.32421875 C-76.60537996 118.43837128 -75.20642667 110.8445224 -73.625 103.1328125 C-73.43744141 102.21338867 -73.24988281 101.29396484 -73.05664062 100.34667969 C-72.01741162 95.28338109 -70.95659464 90.22486992 -69.88671875 85.16796875 C-68.70206794 79.54155203 -67.57823181 73.90554352 -66.5 68.2578125 C-66.33636963 67.40219727 -66.17273926 66.54658203 -66.00415039 65.66503906 C-65.0777655 60.74753021 -64.24994602 55.82349428 -63.4855957 50.87841797 C-60.82687554 33.86044881 -55.67148174 18.97224419 -41.27734375 8.41015625 C-28.62978863 0.25238298 -14.60420821 -0.0239464 0 0 Z " fill="#6FB3E4" transform="translate(320.625,586.8671875)"/>
<path d="M0 0 C2.08545602 -0.00456909 4.17091054 -0.00987681 6.25636292 -0.0158844 C10.61278425 -0.02478491 14.96902197 -0.02242713 19.32543945 -0.01245117 C24.88099198 -0.00096267 30.43590874 -0.02118726 35.99137783 -0.05036831 C40.29392964 -0.06879962 44.59633101 -0.06842411 48.89891243 -0.06273079 C50.94603429 -0.06257844 52.99316691 -0.06855072 55.04025078 -0.08102226 C68.27782003 -0.15032525 81.04454456 -0.20028201 91.81640625 8.6640625 C99.57152858 16.50573754 102.01687852 24.88440343 102.00024414 35.68676758 C101.82822767 43.02066499 100.45756078 49.91484618 98.83984375 57.05004883 C97.33162804 63.71426982 95.99885344 70.38490689 94.81640625 77.11328125 C94.66651749 77.96543716 94.51662872 78.81759308 94.36219788 79.6955719 C93.76065793 83.13096623 93.16270906 86.5669125 92.57516479 90.00473022 C86.16232343 127.4793508 86.16232343 127.4793508 71.56640625 139.43359375 C62.89436387 145.26558022 54.66999628 147.8846262 44.30175781 147.86938477 C43.30549377 147.8794606 42.30922974 147.88953644 41.28277588 147.8999176 C38.00741174 147.92828392 34.73251039 147.93426868 31.45703125 147.9375 C29.16550512 147.94714962 26.87398082 147.95724273 24.5824585 147.96775818 C19.78442097 147.98569176 14.98654522 147.99128211 10.18847656 147.98950195 C4.06429781 147.98919743 -2.05883481 148.03013408 -8.18276596 148.08181858 C-12.91510711 148.11530753 -17.64719883 148.12125565 -22.3796463 148.11967278 C-24.63612724 148.1231945 -26.8926159 148.1363601 -29.14897919 148.15966988 C-53.89323167 148.39135261 -53.89323167 148.39135261 -63.89764404 139.15992737 C-70.81341505 132.0286734 -73.61073707 124.50689047 -73.55566406 114.59375 C-73.07735282 106.1295543 -71.06883993 97.73177521 -69.43359375 89.43359375 C-69.10360724 87.69957196 -68.77539817 85.9652107 -68.44921875 84.23046875 C-67.80920156 80.83138312 -67.15789276 77.43473033 -66.5 74.0390625 C-65.70392276 69.90140797 -64.94977796 65.75762625 -64.2109375 61.609375 C-56.86689519 20.51380903 -56.86689519 20.51380903 -40.9296875 8.5546875 C-27.98444192 -0.26575721 -15.12431247 -0.02910576 0 0 Z " fill="#3C71B4" transform="translate(339.43359375,410.56640625)"/>
<path d="M0 0 C1.97574979 -0.00202492 3.95149884 -0.00493983 5.92724609 -0.00869751 C10.05248179 -0.01310116 14.17752159 -0.00675322 18.30273438 0.00732422 C23.56460163 0.02441481 28.82600966 0.01456308 34.08786011 -0.00339317 C38.16303913 -0.01428413 42.23811103 -0.01076039 46.31329346 -0.0030098 C48.25238094 -0.00102245 50.19147846 -0.00341497 52.1305542 -0.01044846 C78.00799254 -0.08373543 78.00799254 -0.08373543 88.625 9.3984375 C89.3675 10.0378125 90.11 10.6771875 90.875 11.3359375 C98.44705405 20.26014405 99.57824425 30.19736106 98.92822266 41.47265625 C97.95480505 50.8651173 95.47793722 60.09902365 93.33837891 69.27929688 C91.69164709 76.47938096 90.4358757 83.75699188 89.16503906 91.03125 C88.82652418 92.96863732 88.48580963 94.9056414 88.14306641 96.84228516 C87.80913526 98.73162416 87.48029266 100.62187309 87.15771484 102.51318359 C84.27466036 118.81456645 78.61560111 130.80736945 64.84765625 140.671875 C53.72917054 147.630739 41.4723488 146.84133726 28.875 146.796875 C26.85058487 146.79889919 24.82617046 146.80181349 22.80175781 146.80557251 C18.57219456 146.8099796 14.3428222 146.80361697 10.11328125 146.78955078 C4.7134074 146.77246 -0.68601899 146.78230986 -6.08587646 146.80026817 C-10.26224083 146.81114973 -14.43850051 146.80763965 -18.61486816 146.7998848 C-20.60502171 146.79789486 -22.595185 146.80029926 -24.58532715 146.80732346 C-50.81306116 146.8795967 -50.81306116 146.8795967 -61.375 136.3984375 C-68.49873176 127.62724743 -71.15949006 118.3250114 -70.16748047 107.03710938 C-69.02713471 97.18542379 -67.2926215 87.42523304 -65.25390625 77.72265625 C-64.28200088 73.04442936 -63.43984927 68.3434355 -62.58544922 63.64257812 C-61.53750372 57.8903287 -60.4626659 52.14329893 -59.375 46.3984375 C-59.1982373 45.46306152 -59.02147461 44.52768555 -58.83935547 43.56396484 C-55.49183319 26.19807946 -55.49183319 26.19807946 -50.375 19.3984375 C-49.81039062 18.64433594 -49.24578125 17.89023437 -48.6640625 17.11328125 C-35.4810763 0.99775322 -19.35855191 -0.07021808 0 0 Z " fill="#33609C" transform="translate(658.375,410.6015625)"/>
<path d="M0 0 C1.68714502 -0.0038947 3.37428907 -0.00823095 5.06143188 -0.01298523 C8.58655993 -0.02041745 12.11158777 -0.02017809 15.63671875 -0.01489258 C20.12739522 -0.00910288 24.61765857 -0.02603145 29.10826683 -0.04923725 C32.58981679 -0.06405461 36.07126909 -0.06483546 39.552845 -0.06172752 C41.20724938 -0.06223675 42.8616598 -0.06739862 44.51603317 -0.07753944 C58.40021316 -0.15221247 69.5714134 0.7934637 80.2890625 10.42578125 C86.44299389 16.85201048 88.327266 24.71027805 88.76953125 33.421875 C88.42593216 46.05868595 85.74612492 58.6970196 83.12939453 71.02685547 C82.55732541 73.82237058 82.03107348 76.62536208 81.50390625 79.4296875 C81.29362793 80.52958008 81.08334961 81.62947266 80.86669922 82.76269531 C80.45090127 84.93905345 80.04197419 87.11673961 79.64111328 89.29589844 C77.8982192 98.29065466 75.41850592 107.01181959 69.6640625 114.30078125 C69.0040625 114.30078125 68.3440625 114.30078125 67.6640625 114.30078125 C67.42300781 114.88859375 67.18195313 115.47640625 66.93359375 116.08203125 C62.88341866 123.16049111 53.91636675 126.33005085 46.4944458 128.49780273 C39.14291493 130.03893345 31.76363312 129.87325097 24.28125 129.83203125 C22.53256007 129.83473362 20.78387162 129.8386222 19.03518677 129.84362793 C15.3926139 129.84948489 11.7504366 129.84108204 8.10791016 129.82226562 C3.46697551 129.79944403 -1.17303513 129.81264346 -5.81393623 129.83655548 C-9.41733624 129.85108807 -13.02052119 129.8463741 -16.62392807 129.83604431 C-18.33414701 129.83339935 -20.04438627 129.83656711 -21.75458145 129.84596252 C-33.49362674 129.89633762 -43.25918673 128.86569147 -53.3359375 122.30078125 C-58.37842169 116.77806047 -61.47848435 111.93703465 -63.0859375 104.61328125 C-63.34890625 103.47503906 -63.611875 102.33679688 -63.8828125 101.1640625 C-65.06152819 91.11449511 -62.28541622 80.79795559 -60.48950195 70.92749023 C-60.03031147 68.4011007 -59.57814837 65.87353129 -59.12695312 63.34570312 C-58.22549371 58.32515565 -57.28799879 53.31195481 -56.3359375 48.30078125 C-56.17482483 47.44184265 -56.01371216 46.58290405 -55.84771729 45.69793701 C-55.36376324 43.14474885 -54.86228675 40.59561266 -54.35546875 38.046875 C-54.14104378 36.9044912 -54.14104378 36.9044912 -53.92228699 35.73902893 C-51.43866982 23.57321765 -44.2353572 13.65517056 -34.3359375 6.30078125 C-23.75994666 -0.42177927 -12.06295688 -0.01164207 0 0 Z " fill="#487EC2" transform="translate(491.3359375,511.69921875)"/>
<path d="M0 0 C0.33 0 0.66 0 1 0 C1.05525226 1.35368041 1.09334369 2.70806235 1.125 4.0625 C1.14820313 4.81660156 1.17140625 5.57070313 1.1953125 6.34765625 C0.94537571 9.74179784 -0.03949728 12.73778351 -1 16 C-1.47100331 18.43124832 -1.9057785 20.86967579 -2.3125 23.3125 C-3.61683162 30.95550168 -5.03763936 38.57321447 -6.5 46.1875 C-6.71527344 47.31768555 -6.93054688 48.44787109 -7.15234375 49.61230469 C-8.92196955 58.81921452 -8.92196955 58.81921452 -9.98828125 63.1796875 C-13.02411763 75.63956574 -14.47988562 88.07538811 -7.765625 99.54296875 C-3.17129364 105.93640775 2.57193565 109.50558611 10 112 C13.37507249 112.52692015 16.67554631 112.55841484 20.08691406 112.53344727 C21.05245712 112.54206284 22.01800018 112.55067841 23.01280212 112.55955505 C26.18068851 112.58211572 29.34768276 112.57549222 32.515625 112.56640625 C34.73606628 112.57164753 36.95650533 112.57792585 39.17694092 112.58518982 C43.82363381 112.59557688 48.47002017 112.59105873 53.11669922 112.57641602 C59.04226238 112.55926283 64.96685267 112.5826905 70.89230728 112.61790562 C75.47715561 112.63997747 80.06177489 112.63841394 84.64665985 112.6301403 C86.8297202 112.62932553 89.01279818 112.63609727 91.19580841 112.65091133 C107.79350223 112.74626023 121.14996907 111.48836323 133.640625 99.4140625 C139.80347102 92.78433421 143.21074079 84.78363611 145 76 C145.33 76 145.66 76 146 76 C145.36356715 89.15294557 138.79195026 97.88636684 129.25 106.59765625 C121.46540365 112.71679809 112.06401588 114.60172941 102.39477539 114.54931641 C101.39807327 114.55953827 100.40137115 114.56976013 99.37446594 114.58029175 C96.11527764 114.6078455 92.85694638 114.60618911 89.59765625 114.6015625 C87.31041659 114.60934873 85.02317979 114.61802059 82.73594666 114.62753296 C77.95578613 114.64240552 73.17592119 114.64191226 68.39575195 114.63134766 C62.29516018 114.61975634 56.19578245 114.6536479 50.09539127 114.700037 C45.37590054 114.72961568 40.65669889 114.73124127 35.93713188 114.72501755 C33.68903636 114.72603848 31.44092349 114.73641019 29.19291878 114.75664139 C4.53515374 114.95137073 4.53515374 114.95137073 -5.46446228 105.72647095 C-12.37935155 98.5942734 -15.17714523 91.07364054 -15.12207031 81.16015625 C-14.64375907 72.69596055 -12.63524618 64.29818146 -11 56 C-10.67001349 54.26597821 -10.34180442 52.53161695 -10.015625 50.796875 C-9.37684786 47.40588843 -8.72875439 44.01688466 -8.07421875 40.62890625 C-7.26342588 36.41140783 -6.48015787 32.18940814 -5.70703125 27.96484375 C-5.48587646 26.75795898 -5.26472168 25.55107422 -5.03686523 24.30761719 C-4.60592714 21.95057181 -4.17695194 19.59316644 -3.75024414 17.23535156 C-2.68672179 11.42804493 -1.5153053 5.70672319 0 0 Z " fill="#E6ECF6" transform="translate(281,444)"/>
<path d="M0 0 C1.29383102 0.00045822 2.58766205 0.00091644 3.92070007 0.00138855 C6.63753798 0.00293636 9.35424096 0.01108857 12.07104492 0.0246582 C15.49983659 0.04159627 18.92848192 0.04537871 22.3573103 0.0448513 C71.80682542 0.04656594 71.80682542 0.04656594 84.69921875 11.79296875 C88.69706358 16.24771013 88.69706358 16.24771013 89.88671875 18.23046875 C89.55671875 19.22046875 89.22671875 20.21046875 88.88671875 21.23046875 C88.52320313 20.71097656 88.1596875 20.19148437 87.78515625 19.65625 C81.73059676 11.25748927 76.08106791 6.61784452 65.88671875 4.23046875 C58.98502817 3.48270125 52.0060109 3.66645764 45.07421875 3.69921875 C43.05362766 3.69651904 41.03303785 3.69263266 39.01245117 3.68762207 C34.79300476 3.68174956 30.57389879 3.69021725 26.35449219 3.70898438 C20.97143956 3.73177237 15.58918492 3.71863719 10.2061615 3.69469452 C6.03831064 3.68017562 1.87064606 3.68487037 -2.29721069 3.69520569 C-4.28095598 3.69785616 -6.2647187 3.69466298 -8.2484436 3.68528748 C-24.436848 3.62555071 -35.62819598 5.33059754 -47.79296875 16.81640625 C-52.52552502 21.84321472 -55.23759957 28.02022001 -58.11328125 34.23046875 C-58.94885164 31.87183336 -59.24731714 30.62641386 -58.43359375 28.22265625 C-52.14462096 17.08336457 -43.03995252 6.92865321 -30.55400085 2.87239075 C-20.55551531 0.24273685 -10.27544138 -0.06108512 0 0 Z " fill="#D8E8F6" transform="translate(321.11328125,586.76953125)"/>
<path d="M0 0 C2.08545602 -0.00456909 4.17091054 -0.00987681 6.25636292 -0.0158844 C10.61278425 -0.02478491 14.96902197 -0.02242713 19.32543945 -0.01245117 C24.88099198 -0.00096267 30.43590874 -0.02118726 35.99137783 -0.05036831 C40.29392964 -0.06879962 44.59633101 -0.06842411 48.89891243 -0.06273079 C50.94603429 -0.06257844 52.99316691 -0.06855072 55.04025078 -0.08102226 C68.88013012 -0.15347854 80.80184319 0.20546311 92.23828125 8.96875 C93.56640625 10.43359375 93.56640625 10.43359375 93.56640625 13.43359375 C92.82390625 12.71171875 92.08140625 11.98984375 91.31640625 11.24609375 C80.63083023 2.59735689 69.02062028 2.7267358 55.99609375 2.875 C54.10580778 2.87926283 52.21551654 2.8815801 50.32522583 2.88206482 C46.37640373 2.8882017 42.42815513 2.91074983 38.47949219 2.9465332 C33.47061606 2.99161441 28.46225972 3.00655243 23.45319939 3.01027012 C19.55100584 3.01474724 15.64891654 3.03013779 11.74676895 3.04914665 C9.90279097 3.05789949 8.05880239 3.06469031 6.21480942 3.06930733 C-7.83077687 3.11931466 -21.5775177 4.01622899 -35.43359375 6.43359375 C-27.54521275 -2.53355361 -10.80244019 -0.02078859 0 0 Z " fill="#D4E0EF" transform="translate(339.43359375,410.56640625)"/>
<path d="M0 0 C3.90788057 3.90788057 3.29765372 9.12265614 3.32128906 14.39990234 C3.17482521 22.86511729 1.29693077 31.03658138 -0.43994141 39.29150391 C-1.15830035 42.76555541 -1.81011089 46.25018104 -2.45751953 49.73803711 C-3.10792084 53.22658331 -3.78491335 56.70979679 -4.46142578 60.19335938 C-4.83670657 62.14903839 -5.20428475 64.10620454 -5.56591797 66.06445312 C-8.77226813 83.39636426 -11.88106736 98.84615472 -26.74609375 110.07421875 C-31.54161677 113.28207879 -35.20086158 115.31974916 -41 116 C-38.50030749 113.91692291 -35.99294482 112.48773994 -33.0625 111.125 C-29.28376473 109.27049155 -26.81822858 107.17953994 -24 104 C-23.45601563 103.47019531 -22.91203125 102.94039063 -22.3515625 102.39453125 C-13.63997797 93.47371652 -10.5580151 82.04185499 -9 70 C-8.55545456 67.33000007 -8.09941245 64.66462171 -7.625 62 C-7.49971924 61.29029053 -7.37443848 60.58058105 -7.24536133 59.84936523 C-6.22689091 54.1369648 -5.1315405 48.44101472 -4 42.75 C-3.83161621 41.90179688 -3.66323242 41.05359375 -3.48974609 40.1796875 C-2.52996721 35.41695868 -1.44452468 30.7104841 -0.25 26 C1.8055694 17.29734475 1.35037895 8.77746317 0 0 Z " fill="#DFE8F3" transform="translate(523,263)"/>
<path d="M0 0 C0.66 0.33 1.32 0.66 2 1 C1.34773437 1.47308594 0.69546875 1.94617188 0.0234375 2.43359375 C-5.97064564 6.96893984 -10.48445819 11.32453478 -14 18 C-14.48364014 18.91471069 -14.48364014 18.91471069 -14.97705078 19.84790039 C-18.10700299 26.23755504 -19.16406779 32.55605083 -20.125 39.5625 C-21.95368785 52.28019278 -21.95368785 52.28019278 -23.46435547 57.92358398 C-24.64305825 62.4928033 -25.54011161 67.13090073 -26.5 71.75 C-26.71269531 72.75804687 -26.92539062 73.76609375 -27.14453125 74.8046875 C-29.32500939 85.2656317 -31.21437779 95.55671336 -31.625 106.25 C-31.66367187 107.10207031 -31.70234375 107.95414063 -31.7421875 108.83203125 C-31.83457895 110.88774092 -31.91826975 112.94383887 -32 115 C-32.33 115 -32.66 115 -33 115 C-35.49815953 100.46251746 -31.86846195 85.55199954 -28.87890625 71.32421875 C-27.90700088 66.64599186 -27.06484927 61.944998 -26.21044922 57.24414062 C-25.16250372 51.4918912 -24.0876659 45.74486143 -23 40 C-22.8232373 39.06462402 -22.64647461 38.12924805 -22.46435547 37.16552734 C-19.76899924 23.18287287 -15.79753687 11.7054624 -4.15234375 2.546875 C-2.80426662 1.64178303 -1.40762292 0.80938318 0 0 Z " fill="#DFE6F0" transform="translate(622,417)"/>
<path d="M0 0 C4.93771286 7.40656929 2.37669112 19.59061016 0.76171875 27.85546875 C-0.5084676 33.88212363 -1.88869081 39.88271395 -3.28662109 45.88085938 C-4.93335291 53.08094346 -6.1891243 60.35855438 -7.45996094 67.6328125 C-7.79847582 69.57019982 -8.13919037 71.5072039 -8.48193359 73.44384766 C-8.81586474 75.33318666 -9.14470734 77.22343559 -9.46728516 79.11474609 C-10.97121956 87.61830045 -12.70417978 95.75308102 -17.5 103.0625 C-18.0878125 103.98160156 -18.675625 104.90070313 -19.28125 105.84765625 C-21 108 -21 108 -24 109 C-22.18070814 105.16991188 -19.89080175 101.73715658 -17.53515625 98.21875 C-13.33441969 89.41109879 -12.08186945 79.00740713 -10.125 69.5 C-9.8681543 68.25766602 -9.61130859 67.01533203 -9.34667969 65.73535156 C-7.27794887 55.61106969 -5.41037511 45.45774108 -3.64892578 35.27539062 C-2.83287053 30.570333 -2.00373536 25.90851233 -0.8671875 21.26953125 C0.16054778 16.79460055 0.22922242 12.51126073 0.125 7.9375 C0.11597656 7.16728516 0.10695313 6.39707031 0.09765625 5.60351562 C0.07445155 3.73553757 0.03859819 1.86772338 0 0 Z " fill="#D8E2ED" transform="translate(755,434)"/>
<path d="M0 0 C0.33 0 0.66 0 1 0 C1.05525226 1.35368041 1.09334369 2.70806235 1.125 4.0625 C1.14820313 4.81660156 1.17140625 5.57070313 1.1953125 6.34765625 C0.94531946 9.74256167 -0.04113481 12.73570441 -1 16 C-1.51473539 18.62488099 -1.99686071 21.23829638 -2.4375 23.875 C-2.69259292 25.3606969 -2.94780506 26.84637334 -3.203125 28.33203125 C-3.33267578 29.09338379 -3.46222656 29.85473633 -3.59570312 30.63916016 C-4.27681957 34.61645247 -4.98343283 38.5892185 -5.6875 42.5625 C-5.94152175 44.0012817 -6.1954389 45.44008187 -6.44921875 46.87890625 C-6.63097656 47.90886719 -6.81273437 48.93882812 -7 50 C-7.33 50 -7.66 50 -8 50 C-8.12102815 44.53774842 -7.75062401 39.44347598 -6.7578125 34.0625 C-6.62937958 33.33812744 -6.50094666 32.61375488 -6.36862183 31.86743164 C-6.09778128 30.34756399 -5.82366234 28.82827716 -5.54638672 27.30957031 C-5.12630196 25.00713587 -4.71658826 22.70304187 -4.30859375 20.3984375 C-4.04227268 18.91134968 -3.775365 17.42436676 -3.5078125 15.9375 C-3.3868924 15.26017822 -3.26597229 14.58285645 -3.14138794 13.88500977 C-2.28184234 9.19744506 -1.19200164 4.61121496 0 0 Z " fill="#D7E1EF" transform="translate(281,444)"/>
<path d="M0 0 C1 3 1 3 -0.328125 5.6640625 C-1.27945313 7.12972656 -1.27945313 7.12972656 -2.25 8.625 C-2.87390625 9.60726562 -3.4978125 10.58953125 -4.140625 11.6015625 C-6 14 -6 14 -9 15 C-7.38325319 11.57053707 -5.42402323 8.43736948 -3.375 5.25 C-2.74335937 4.26515625 -2.11171875 3.2803125 -1.4609375 2.265625 C-0.97882812 1.51796875 -0.49671875 0.7703125 0 0 Z " fill="#E0E8F0" transform="translate(740,528)"/>
<path d="M0 0 C0.66 0 1.32 0 2 0 C1.47462276 5.0302076 0.89405214 10.01885239 0 15 C-0.33 15 -0.66 15 -1 15 C-1.02703381 13.06257659 -1.04641125 11.12504521 -1.0625 9.1875 C-1.07410156 8.10855469 -1.08570313 7.02960938 -1.09765625 5.91796875 C-1 3 -1 3 0 0 Z " fill="#C2D0E3" transform="translate(600,454)"/>
</svg>
